dataset
version=1
nRows=14
nColumns=39
inDegrees=no
endheader
time	sternoclavicular_r2	sternoclavicular_r3	unrotscap_r3	unrotscap_r2	acromioclavicular_r2	acromioclavicular_r3	acromioclavicular_r1	unrothum_r1	unrothum_r3	unrothum_r2	elv_angle	shoulder_elv	shoulder1_r2	shoulder_rot	elbow_flexion	pro_sup	deviation	flexion	cmc_abduction	cmc_flexion	mp_flexion	ip_flexion	mcp2_flexion	mcp2_abduction	pm2_flexion	md2_flexion	mcp3_flexion	mcp3_abduction	pm3_flexion	md3_flexion	mcp4_flexion	mcp4_abduction	pm4_flexion	md4_flexion	mcp5_flexion	mcp5_abduction	pm5_flexion	md5_flexion
1.965000	-0.056719	-0.244486	0.074746	0.116415	0.065428	0.261090	0.029686	-0.022914	0.289637	0.079835	0.138817	0.027437	0.146525	0.146525	2.372550	1.264554	0.000000	0.000000	0.000000	0.000000	0.000000	0.000000	0.000000	0.000000	0.000000	0.000000	0.000000	0.000000	0.000000	0.000000	0.000000	0.000000	0.000000	0.000000	0.000000	0.000000	0.000000	0.000000
1.970000	-0.056785	-0.244374	0.074614	0.116183	0.065153	0.261270	0.029920	-0.022660	0.289732	0.079426	0.138489	0.027437	0.146525	0.146525	2.372319	1.264892	0.000000	0.000000	0.000000	0.000000	0.000000	0.000000	0.000000	0.000000	0.000000	0.000000	0.000000	0.000000	0.000000	0.000000	0.000000	0.000000	0.000000	0.000000	0.000000	0.000000	0.000000	0.000000
1.975000	-0.056850	-0.244263	0.074483	0.115953	0.064883	0.261443	0.030147	-0.022414	0.289822	0.079025	0.138167	0.027437	0.146525	0.146525	2.372039	1.265228	0.000000	0.000000	0.000000	0.000000	0.000000	0.000000	0.000000	0.000000	0.000000	0.000000	0.000000	0.000000	0.000000	0.000000	0.000000	0.000000	0.000000	0.000000	0.000000	0.000000	0.000000	0.000000
1.980000	-0.056913	-0.244154	0.074355	0.115726	0.064616	0.261609	0.030369	-0.022177	0.289907	0.078632	0.137849	0.027437	0.146525	0.146525	2.371715	1.265562	0.000000	0.000000	0.000000	0.000000	0.000000	0.000000	0.000000	0.000000	0.000000	0.000000	0.000000	0.000000	0.000000	0.000000	0.000000	0.000000	0.000000	0.000000	0.000000	0.000000	0.000000	0.000000
1.985000	-0.056975	-0.244046	0.074229	0.115501	0.064354	0.261768	0.030584	-0.021947	0.289987	0.078248	0.137536	0.027437	0.146525	0.146525	2.371351	1.265894	0.000000	0.000000	0.000000	0.000000	0.000000	0.000000	0.000000	0.000000	0.000000	0.000000	0.000000	0.000000	0.000000	0.000000	0.000000	0.000000	0.000000	0.000000	0.000000	0.000000	0.000000	0.000000
1.990000	-0.057034	-0.243940	0.074105	0.115279	0.064095	0.261921	0.030793	-0.021727	0.290064	0.077871	0.137228	0.027437	0.146525	0.146525	2.370951	1.266223	0.000000	0.000000	0.000000	0.000000	0.000000	0.000000	0.000000	0.000000	0.000000	0.000000	0.000000	0.000000	0.000000	0.000000	0.000000	0.000000	0.000000	0.000000	0.000000	0.000000	0.000000	0.000000
1.995000	-0.057092	-0.243836	0.073984	0.115059	0.063840	0.262068	0.030995	-0.021514	0.290136	0.077503	0.136925	0.027437	0.146525	0.146525	2.370518	1.266550	0.000000	0.000000	0.000000	0.000000	0.000000	0.000000	0.000000	0.000000	0.000000	0.000000	0.000000	0.000000	0.000000	0.000000	0.000000	0.000000	0.000000	0.000000	0.000000	0.000000	0.000000	0.000000
2.000000	-0.057148	-0.243735	0.073865	0.114843	0.063589	0.262208	0.031191	-0.021309	0.290204	0.077142	0.136628	0.027437	0.146525	0.146525	2.370057	1.266874	0.000000	0.000000	0.000000	0.000000	0.000000	0.000000	0.000000	0.000000	0.000000	0.000000	0.000000	0.000000	0.000000	0.000000	0.000000	0.000000	0.000000	0.000000	0.000000	0.000000	0.000000	0.000000
2.005000	-0.057202	-0.243635	0.073750	0.114628	0.063342	0.262344	0.031381	-0.021112	0.290269	0.076789	0.136335	0.027437	0.146525	0.146525	2.369572	1.267194	0.000000	0.000000	0.000000	0.000000	0.000000	0.000000	0.000000	0.000000	0.000000	0.000000	0.000000	0.000000	0.000000	0.000000	0.000000	0.000000	0.000000	0.000000	0.000000	0.000000	0.000000	0.000000
2.010000	-0.057253	-0.243539	0.073637	0.114417	0.063099	0.262474	0.031564	-0.020922	0.290330	0.076444	0.136048	0.027437	0.146525	0.146525	2.369065	1.267512	0.000000	0.000000	0.000000	0.000000	0.000000	0.000000	0.000000	0.000000	0.000000	0.000000	0.000000	0.000000	0.000000	0.000000	0.000000	0.000000	0.000000	0.000000	0.000000	0.000000	0.000000	0.000000
2.015000	-0.057303	-0.243445	0.073528	0.114208	0.062859	0.262599	0.031741	-0.020740	0.290387	0.076107	0.135766	0.027437	0.146525	0.146525	2.368541	1.267826	0.000000	0.000000	0.000000	0.000000	0.000000	0.000000	0.000000	0.000000	0.000000	0.000000	0.000000	0.000000	0.000000	0.000000	0.000000	0.000000	0.000000	0.000000	0.000000	0.000000	0.000000	0.000000
2.020000	-0.057351	-0.243354	0.073422	0.114001	0.062623	0.262719	0.031912	-0.020565	0.290440	0.075776	0.135488	0.027437	0.146525	0.146525	2.368003	1.268137	0.000000	0.000000	0.000000	0.000000	0.000000	0.000000	0.000000	0.000000	0.000000	0.000000	0.000000	0.000000	0.000000	0.000000	0.000000	0.000000	0.000000	0.000000	0.000000	0.000000	0.000000	0.000000
2.025000	-0.057396	-0.243267	0.073319	0.113797	0.062391	0.262834	0.032076	-0.020397	0.290490	0.075453	0.135215	0.027437	0.146525	0.146525	2.367455	1.268444	0.000000	0.000000	0.000000	0.000000	0.000000	0.000000	0.000000	0.000000	0.000000	0.000000	0.000000	0.000000	0.000000	0.000000	0.000000	0.000000	0.000000	0.000000	0.000000	0.000000	0.000000	0.000000
2.030000	-0.057440	-0.243182	0.073219	0.113596	0.062162	0.262945	0.032234	-0.020235	0.290536	0.075137	0.134947	0.027437	0.146525	0.146525	2.366898	1.268747	0.000000	0.000000	0.000000	0.000000	0.000000	0.000000	0.000000	0.000000	0.000000	0.000000	0.000000	0.000000	0.000000	0.000000	0.000000	0.000000	0.000000	0.000000	0.000000	0.000000	0.000000	0.000000
